<svg version="1.1" xmlns="http://www.w3.org/2000/svg" xmlns:xlink="http://www.w3.org/1999/xlink">


<svg id="arr" viewBox="0 0 43 43" fill="none" xmlns="http://www.w3.org/2000/svg">
  <path d="M23.7121 37.069C23.6496 37.0066 23.6001 36.9325 23.5663 36.8509C23.5325 36.7694 23.5151 36.6819 23.5151 36.5936C23.5151 36.5053 23.5325 36.4179 23.5663 36.3363C23.6001 36.2548 23.6496 36.1807 23.7121 36.1183L34.6586 25.1718H6.71871C6.54052 25.1718 6.36962 25.101 6.24362 24.975C6.11762 24.849 6.04683 24.6781 6.04683 24.4999C6.04683 24.3217 6.11762 24.1508 6.24362 24.0248C6.36962 23.8988 6.54052 23.828 6.71871 23.828H34.6586L23.7121 12.8815C23.6497 12.8191 23.6002 12.745 23.5664 12.6634C23.5326 12.5818 23.5152 12.4944 23.5152 12.4061C23.5152 12.3179 23.5326 12.2304 23.5664 12.1489C23.6002 12.0673 23.6497 11.9932 23.7121 11.9308C23.7745 11.8684 23.8486 11.8188 23.9302 11.7851C24.0118 11.7513 24.0992 11.7339 24.1875 11.7339C24.2757 11.7339 24.3632 11.7513 24.4447 11.7851C24.5263 11.8188 24.6004 11.8684 24.6628 11.9308L36.7566 24.0245C36.819 24.0869 36.8686 24.161 36.9024 24.2426C36.9362 24.3242 36.9536 24.4116 36.9536 24.4999C36.9536 24.5882 36.9362 24.6756 36.9024 24.7572C36.8686 24.8387 36.819 24.9128 36.7566 24.9752L24.6628 37.069C24.6004 37.1315 24.5263 37.181 24.4447 37.2148C24.3632 37.2486 24.2758 37.266 24.1875 37.266C24.0992 37.266 24.0117 37.2486 23.9302 37.2148C23.8486 37.181 23.7745 37.1315 23.7121 37.069Z" fill="currentColor"/>
</svg>

<svg id="tg" width="32" height="32" viewBox="0 0 32 32" fill="none" xmlns="http://www.w3.org/2000/svg">
  <g clip-path="url(#clip0_112_5941)">
    <path d="M16 0C11.7575 0 7.685 1.68675 4.6875 4.68625C1.68691 7.68694 0.000831175 11.7565 0 16C0 20.2417 1.6875 24.3142 4.6875 27.3137C7.685 30.3132 11.7575 32 16 32C20.2425 32 24.315 30.3132 27.3125 27.3137C30.3125 24.3142 32 20.2417 32 16C32 11.7583 30.3125 7.68575 27.3125 4.68625C24.315 1.68675 20.2425 0 16 0Z" fill="currentColor"/>
    <path d="M7.2425 15.8311C11.9075 13.7991 15.0175 12.4593 16.5725 11.8121C21.0175 9.96381 21.94 9.64281 22.5425 9.63193C22.675 9.62981 22.97 9.66256 23.1625 9.81818C23.3225 9.94943 23.3675 10.1269 23.39 10.2516C23.41 10.3761 23.4375 10.6598 23.415 10.8813C23.175 13.4113 22.1325 19.5508 21.6025 22.3846C21.38 23.5836 20.9375 23.9856 20.51 24.0248C19.58 24.1103 18.875 23.4108 17.975 22.8211C16.5675 21.8978 15.7725 21.3233 14.405 20.4226C12.825 19.3816 13.85 18.8093 14.75 17.8743C14.985 17.6296 19.08 13.9058 19.1575 13.5681C19.1675 13.5258 19.1775 13.3683 19.0825 13.2853C18.99 13.2021 18.8525 13.2306 18.7525 13.2531C18.61 13.2851 16.3625 14.7721 12.0025 17.7138C11.365 18.1523 10.7875 18.3661 10.2675 18.3548C9.6975 18.3426 8.5975 18.0318 7.78 17.7663C6.78 17.4406 5.9825 17.2683 6.0525 16.7151C6.0875 16.4271 6.485 16.1323 7.2425 15.8311Z" fill="white"/>
  </g>
  <defs>
    <clipPath id="clip0_112_5941">
      <rect width="32" height="32" fill="white"/>
    </clipPath>
  </defs>
</svg>

<svg id="wa" width="32" height="32" viewBox="0 0 32 32" fill="none" xmlns="http://www.w3.org/2000/svg">
  <g clip-path="url(#clip0_112_5944)">
    <path d="M0.686823 15.8086C0.686073 18.4972 1.39389 21.1224 2.7398 23.4363L0.558105 31.3423L8.71004 29.2209C10.9647 30.4391 13.491 31.0775 16.0582 31.0776H16.0649C24.5396 31.0776 31.4383 24.2332 31.4419 15.8206C31.4435 11.7441 29.8454 7.91076 26.9419 5.02679C24.0389 2.14307 20.178 0.554107 16.0643 0.552246C7.58857 0.552246 0.690447 7.39628 0.686948 15.8086" fill="currentColor"/>
    <path d="M12.0857 9.19662C11.7876 8.53888 11.4738 8.52561 11.1902 8.51407C10.958 8.50415 10.6926 8.5049 10.4274 8.5049C10.162 8.5049 9.7307 8.604 9.36617 8.99904C9.00126 9.39445 7.97302 10.35 7.97302 12.2934C7.97302 14.237 9.39929 16.1152 9.59811 16.379C9.79718 16.6423 12.3515 20.7582 16.397 22.3415C19.7592 23.6574 20.4434 23.3957 21.173 23.3297C21.9029 23.264 23.5279 22.3744 23.8595 21.452C24.1913 20.5297 24.1913 19.7391 24.0918 19.5739C23.9923 19.4093 23.7269 19.3105 23.3289 19.113C22.9307 18.9154 20.974 17.9598 20.6092 17.8279C20.2443 17.6962 19.979 17.6305 19.7135 18.026C19.4481 18.4209 18.6859 19.3105 18.4536 19.5739C18.2215 19.838 17.9892 19.8708 17.5913 19.6733C17.1931 19.4751 15.9113 19.0584 14.3905 17.7128C13.2073 16.6658 12.4085 15.3727 12.1763 14.9772C11.9441 14.5823 12.1515 14.3682 12.351 14.1714C12.5299 13.9944 12.7492 13.7101 12.9484 13.4795C13.1468 13.2488 13.2131 13.0842 13.3458 12.8208C13.4786 12.5571 13.4121 12.3264 13.3128 12.1288C13.2131 11.9313 12.4396 9.97764 12.0857 9.19662Z" fill="white"/>
  </g>
  <defs>
    <clipPath id="clip0_112_5944">
      <rect width="32" height="32" fill="white"/>
    </clipPath>
  </defs>
</svg>

<svg id="vk" width="32" height="32" viewBox="0 0 32 32" fill="none" xmlns="http://www.w3.org/2000/svg">
  <g clip-path="url(#clip0_112_5948)">
    <path d="M16 0.639893C7.51682 0.639893 0.640015 7.51669 0.640015 15.9999C0.640015 24.4831 7.51682 31.3599 16 31.3599C24.4832 31.3599 31.36 24.4831 31.36 15.9999C31.36 7.51669 24.4832 0.639893 16 0.639893ZM21.9072 17.9695C21.9072 17.9695 23.2656 19.3103 23.6 19.9327C23.6096 19.9455 23.6144 19.9583 23.6176 19.9647C23.7536 20.1935 23.7856 20.3711 23.7184 20.5039C23.6064 20.7247 23.2224 20.8335 23.0912 20.8431H20.6912C20.5248 20.8431 20.176 20.7999 19.7536 20.5087C19.4288 20.2815 19.1088 19.9087 18.7968 19.5455C18.3312 19.0047 17.928 18.5375 17.5216 18.5375C17.47 18.5374 17.4187 18.5455 17.3696 18.5615C17.0624 18.6607 16.6688 19.0991 16.6688 20.2671C16.6688 20.6319 16.3808 20.8415 16.1776 20.8415H15.0784C14.704 20.8415 12.7536 20.7103 11.0256 18.8879C8.91041 16.6559 7.00641 12.1791 6.99041 12.1375C6.87041 11.8479 7.11841 11.6927 7.38881 11.6927H9.81281C10.136 11.6927 10.2416 11.8895 10.3152 12.0639C10.4016 12.2671 10.7184 13.0751 11.2384 13.9839C12.0816 15.4655 12.5984 16.0671 13.0128 16.0671C13.0905 16.0662 13.1668 16.0464 13.2352 16.0095C13.776 15.7087 13.6752 13.7807 13.6512 13.3807C13.6512 13.3055 13.6496 12.5183 13.3728 12.1407C13.1744 11.8671 12.8368 11.7631 12.632 11.7247C12.7149 11.6103 12.8241 11.5176 12.9504 11.4543C13.3216 11.2687 13.9904 11.2415 14.6544 11.2415H15.024C15.744 11.2511 15.9296 11.2975 16.1904 11.3631C16.7184 11.4895 16.7296 11.8303 16.6832 12.9967C16.6688 13.3279 16.6544 13.7023 16.6544 14.1439C16.6544 14.2399 16.6496 14.3423 16.6496 14.4511C16.6336 15.0447 16.6144 15.7183 17.0336 15.9951C17.0883 16.0294 17.1515 16.0477 17.216 16.0479C17.3616 16.0479 17.8 16.0479 18.9872 14.0111C19.3534 13.3555 19.6715 12.6743 19.9392 11.9727C19.9632 11.9311 20.0336 11.8031 20.1168 11.7535C20.1782 11.7222 20.2463 11.7063 20.3152 11.7071H23.1648C23.4752 11.7071 23.688 11.7535 23.728 11.8735C23.7984 12.0639 23.7152 12.6447 22.4144 14.4063L21.8336 15.1727C20.6544 16.7183 20.6544 16.7967 21.9072 17.9695Z" fill="currentColor"/>
  </g>
  <defs>
    <clipPath id="clip0_112_5948">
      <rect width="32" height="32" fill="white"/>
    </clipPath>
  </defs>
</svg>

<svg id="ig" width="32" height="32" viewBox="0 0 32 32" fill="none" xmlns="http://www.w3.org/2000/svg">
  <path d="M17.1749 1.0018C18.2452 0.997698 19.3154 1.00845 20.3854 1.03407L20.6699 1.04434C20.9984 1.05607 21.3226 1.07074 21.7142 1.08834C23.2747 1.16167 24.3394 1.40806 25.2737 1.77032C26.2417 2.14285 27.0571 2.64737 27.8726 3.46282C28.6182 4.19556 29.1952 5.08191 29.5636 6.06024C29.9259 6.99448 30.1723 8.06073 30.2456 9.62123C30.2632 10.0114 30.2779 10.337 30.2896 10.6655L30.2984 10.95C30.3244 12.0195 30.3357 13.0892 30.3321 14.159L30.3336 15.2531V17.1744C30.3372 18.2447 30.326 19.3149 30.2999 20.3849L30.2911 20.6694C30.2793 20.9979 30.2647 21.3221 30.2471 21.7137C30.1737 23.2742 29.9244 24.3389 29.5636 25.2732C29.1964 26.2525 28.6192 27.1396 27.8726 27.8721C27.1392 28.6176 26.2524 29.1946 25.2737 29.5631C24.3394 29.9254 23.2747 30.1718 21.7142 30.2451C21.3226 30.2627 20.9984 30.2773 20.6699 30.2891L20.3854 30.2979C19.3154 30.324 18.2452 30.3352 17.1749 30.3316L16.0808 30.3331H14.161C13.0907 30.3367 12.0205 30.3254 10.9505 30.2993L10.666 30.2906C10.3178 30.2779 9.96973 30.2633 9.62174 30.2465C8.06124 30.1732 6.99646 29.9239 6.06074 29.5631C5.08203 29.1955 4.19553 28.6183 3.46333 27.8721C2.71688 27.1392 2.13929 26.2523 1.77083 25.2732C1.40857 24.3389 1.16218 23.2742 1.08884 21.7137C1.07251 21.3656 1.05784 21.0176 1.04485 20.6694L1.03751 20.3849C1.01047 19.3149 0.998249 18.2447 1.00085 17.1744V14.159C0.996753 13.0892 1.00751 12.0195 1.03311 10.95L1.04338 10.6655C1.05511 10.337 1.06978 10.0114 1.08738 9.62123C1.16071 8.05926 1.4071 6.99595 1.76936 6.06024C2.13804 5.08143 2.71676 4.19533 3.4648 3.46429C4.19649 2.71741 5.08244 2.13929 6.06074 1.77032C6.99646 1.40806 8.05977 1.16167 9.62174 1.08834L10.666 1.04434L10.9505 1.037C12.02 1.00998 13.0897 0.997755 14.1595 1.00034L17.1749 1.0018ZM15.6672 8.33499C14.6956 8.32125 13.7309 8.50076 12.8292 8.86308C11.9276 9.2254 11.1069 9.76332 10.415 10.4456C9.723 11.1278 9.17354 11.9408 8.7985 12.8372C8.42346 13.7337 8.23033 14.6957 8.23033 15.6674C8.23033 16.6392 8.42346 17.6012 8.7985 18.4977C9.17354 19.3941 9.723 20.2071 10.415 20.8893C11.1069 21.5716 11.9276 22.1095 12.8292 22.4718C13.7309 22.8341 14.6956 23.0136 15.6672 22.9999C17.6121 22.9999 19.4773 22.2273 20.8526 20.8521C22.2278 19.4768 23.0004 17.6116 23.0004 15.6667C23.0004 13.7218 22.2278 11.8566 20.8526 10.4814C19.4773 9.10612 17.6121 8.33499 15.6672 8.33499ZM15.6672 11.2683C16.2517 11.2575 16.8324 11.3633 17.3756 11.5795C17.9187 11.7957 18.4133 12.1179 18.8304 12.5274C19.2476 12.9369 19.579 13.4254 19.8053 13.9644C20.0315 14.5034 20.1481 15.0821 20.1482 15.6667C20.1483 16.2513 20.0319 16.83 19.8058 17.3691C19.5797 17.9081 19.2485 18.3968 18.8315 18.8064C18.4144 19.216 17.92 19.5384 17.3769 19.7548C16.8339 19.9712 16.2532 20.0772 15.6687 20.0666C14.5018 20.0666 13.3826 19.6031 12.5575 18.7779C11.7323 17.9528 11.2688 16.8336 11.2688 15.6667C11.2688 14.4998 11.7323 13.3806 12.5575 12.5555C13.3826 11.7304 14.5018 11.2668 15.6687 11.2668L15.6672 11.2683ZM23.3671 6.13503C22.8939 6.15397 22.4464 6.35525 22.1184 6.69671C21.7903 7.03818 21.6071 7.49334 21.6071 7.96686C21.6071 8.44039 21.7903 8.89555 22.1184 9.23701C22.4464 9.57848 22.8939 9.77976 23.3671 9.79869C23.8533 9.79869 24.3196 9.60554 24.6634 9.26173C25.0072 8.91792 25.2004 8.45162 25.2004 7.9654C25.2004 7.47918 25.0072 7.01287 24.6634 6.66906C24.3196 6.32525 23.8533 6.1321 23.3671 6.1321V6.13503Z" fill="currentColor"/>
</svg>


</svg>